<svg xmlns="http://www.w3.org/2000/svg" xmlns:xlink="http://www.w3.org/1999/xlink" xmlns:lucid="lucid" width="1100" height="664.06"><g transform="translate(-720 -300)" lucid:page-tab-id="0_0"><path d="M0 0h1870.87v1322.83H0z" fill="#fff"/><path d="M1230.76 617.82a6 6 0 0 1 6-6h110.62a6 6 0 0 1 6 6v23.67a6 6 0 0 1-6 6h-110.62a6 6 0 0 1-6-6z" stroke="#3a414a" fill="#54c45e"/><use xlink:href="#a" transform="matrix(1,0,0,1,1242.762203936256,623.8235718500991) translate(9.145061728395092 10.388888888888884)"/><path d="M1229.8 629.66h-18.97" stroke="#3a414a" fill="none"/><path d="M1230.3 630.16h-.52v-1h.52z" stroke="#3a414a" stroke-width=".05" fill="#3a414a"/><path d="M1196.06 629.66l14.27-4.64v9.27z" stroke="#3a414a" fill="#3a414a"/><path d="M1083.62 617.82a6 6 0 0 1 6-6h98.36a6 6 0 0 1 6 6v23.67a6 6 0 0 1-6 6h-98.36a6 6 0 0 1-6-6z" stroke="#3a414a" fill="#ced4db"/><use xlink:href="#b" transform="matrix(1,0,0,1,1095.6222124739093,623.8235718500991) translate(8.783950617283978 8.611111111111107)"/><path d="M1354.34 629.66h18.98" stroke="#3a414a" fill="none"/><path d="M1354.36 630.16h-.52v-1h.52z" stroke="#3a414a" stroke-width=".05" fill="#3a414a"/><path d="M1388.08 629.66l-14.26 4.63V625z" stroke="#3a414a" fill="#3a414a"/><path d="M1390.16 617.82a6 6 0 0 1 6-6h98.36a6 6 0 0 1 6 6v23.67a6 6 0 0 1-6 6h-98.36a6 6 0 0 1-6-6z" stroke="#3a414a" fill="#ced4db"/><use xlink:href="#c" transform="matrix(1,0,0,1,1402.1638613537978,623.8235718500991) translate(11.69753086419756 8.611111111111107)"/><path d="M1082.66 629.66h-25.8a6 6 0 0 1-6-6v-204.5a6 6 0 0 0-6-6h-9.92" stroke="#3a414a" fill="none"/><path d="M1083.16 630.16h-.52v-1h.52z" stroke="#3a414a" stroke-width=".05" fill="#3a414a"/><path d="M1020.18 413.15l14.26-4.64v9.28z" stroke="#3a414a" fill="#3a414a"/><a xlink:href="https://build.fhir.org/ig/HL7/fhir-ichom-breast-cancer-ig/Questionnaire-ClinicalResponseAnnualUpdate.html" target="_blank"><path d="M920 401.3a6 6 0 0 1 6-6h86.1a6 6 0 0 1 6 6V425a6 6 0 0 1-6 6H926a6 6 0 0 1-6-6z" stroke="#3a414a" fill="#dfe3e8"/><use xlink:href="#d" transform="matrix(1,0,0,1,932,407.3138103668646) translate(8.870370370370388 8.611111111111107)"/><use xlink:href="#e" transform="matrix(1,0,0,1,932,407.3138103668646) translate(38.96913580246913 8.611111111111107)"/><path class="lucid-link lucid-hotspot lucid-overlay-hotspot" d="M920 401.3a6 6 0 0 1 6-6h86.1a6 6 0 0 1 6 6V425a6 6 0 0 1-6 6H926a6 6 0 0 1-6-6z" fill="none"/></a><g transform="matrix(1,0,0,1,932,407.3138103668646)"><a xlink:href="https://build.fhir.org/ig/HL7/fhir-ichom-breast-cancer-ig/Questionnaire-ClinicalResponseAnnualUpdate.html" target="_blank"><path class="lucid-link lucid-hotspot lucid-overlay-hotspot" fill-opacity="0" d="M8.87 1.5h30.1v10.67H8.87z"/></a><a xlink:href="https://build.fhir.org/ig/HL7/fhir-ichom-breast-cancer-ig/Questionnaire-ClinicalResponseAnnualUpdate.html" target="_blank"><path class="lucid-link lucid-hotspot lucid-overlay-hotspot" fill-opacity="0" d="M38.97 1.5h27.16v10.67H38.97z"/></a></g><path d="M1082.66 629.66h-47.72" stroke="#3a414a" fill="none"/><path d="M1083.16 630.16h-.52v-1h.52z" stroke="#3a414a" stroke-width=".05" fill="#3a414a"/><path d="M1020.18 629.66l14.26-4.64v9.27z" stroke="#3a414a" fill="#3a414a"/><a xlink:href="https://build.fhir.org/ig/HL7/fhir-ichom-breast-cancer-ig/Questionnaire-ClinicalResponseBaseline.html" target="_blank"><path d="M920 617.82a6 6 0 0 1 6-6h86.1a6 6 0 0 1 6 6v23.67a6 6 0 0 1-6 6H926a6 6 0 0 1-6-6z" stroke="#3a414a" fill="#dfe3e8"/><use xlink:href="#f" transform="matrix(1,0,0,1,932,623.8235718500993) translate(20.487654320987666 8.611111111111107)"/><path class="lucid-link lucid-hotspot lucid-overlay-hotspot" d="M920 617.82a6 6 0 0 1 6-6h86.1a6 6 0 0 1 6 6v23.67a6 6 0 0 1-6 6H926a6 6 0 0 1-6-6z" fill="none"/></a><a xlink:href="https://build.fhir.org/ig/HL7/fhir-ichom-breast-cancer-ig/Questionnaire-ClinicalResponseBaseline.html" target="_blank" transform="matrix(1,0,0,1,932,623.8235718500993)"><path class="lucid-link lucid-hotspot lucid-overlay-hotspot" fill-opacity="0" d="M20.5 1.5h34v10.67h-34z"/></a><a xlink:href="https://build.fhir.org/ig/HL7/fhir-ichom-breast-cancer-ig/Questionnaire-ClinicalResponseSixMonths.html" target="_blank"><path d="M920 847.33a6 6 0 0 1 6-6h86.1a6 6 0 0 1 6 6V871a6 6 0 0 1-6 6H926a6 6 0 0 1-6-6z" stroke="#3a414a" fill="#dfe3e8"/><use xlink:href="#g" transform="matrix(1,0,0,1,932,853.333333333339) translate(15.549382716049394 8.611111111111107)"/><use xlink:href="#h" transform="matrix(1,0,0,1,932,853.333333333339) translate(30.339506172839506 8.611111111111107)"/><path class="lucid-link lucid-hotspot lucid-overlay-hotspot" d="M920 847.33a6 6 0 0 1 6-6h86.1a6 6 0 0 1 6 6V871a6 6 0 0 1-6 6H926a6 6 0 0 1-6-6z" fill="none"/></a><g transform="matrix(1,0,0,1,932,853.333333333339)"><a xlink:href="https://build.fhir.org/ig/HL7/fhir-ichom-breast-cancer-ig/Questionnaire-ClinicalResponseSixMonths.html" target="_blank"><path class="lucid-link lucid-hotspot lucid-overlay-hotspot" fill-opacity="0" d="M15.55 1.5h14.8v10.67h-14.8z"/></a><a xlink:href="https://build.fhir.org/ig/HL7/fhir-ichom-breast-cancer-ig/Questionnaire-ClinicalResponseSixMonths.html" target="_blank"><path class="lucid-link lucid-hotspot lucid-overlay-hotspot" fill-opacity="0" d="M30.34 1.5h29.1v10.67h-29.1z"/></a></g><path d="M1082.66 629.66h-25.8a6 6 0 0 0-6 6v217.5a6 6 0 0 1-6 6h-9.92" stroke="#3a414a" fill="none"/><path d="M1083.16 630.16h-.52v-1h.52z" stroke="#3a414a" stroke-width=".05" fill="#3a414a"/><path d="M1020.18 859.17l14.26-4.64v9.27z" stroke="#3a414a" fill="#3a414a"/><path d="M1501.48 629.66h22.78a6 6 0 0 0 6-6v-102.7a6 6 0 0 1 6-6h6.9" stroke="#3a414a" fill="none"/><path d="M1501.5 630.16h-.52v-1h.52z" stroke="#3a414a" stroke-width=".05" fill="#3a414a"/><path d="M1557.92 514.96l-14.27 4.64v-9.27z" stroke="#3a414a" fill="#3a414a"/><a xlink:href="https://build.fhir.org/ig/HL7/fhir-ichom-breast-cancer-ig/Questionnaire-PatientReportedBaseline.html" target="_blank"><path d="M1560 503.13a6 6 0 0 1 6-6h86.1a6 6 0 0 1 6 6v23.66a6 6 0 0 1-6 6H1566a6 6 0 0 1-6-6z" stroke="#3a414a" fill="#dfe3e8"/><use xlink:href="#i" transform="matrix(1,0,0,1,1572,509.128111363863) translate(20.487654320987666 8.611111111111107)"/><path class="lucid-link lucid-hotspot lucid-overlay-hotspot" d="M1560 503.13a6 6 0 0 1 6-6h86.1a6 6 0 0 1 6 6v23.66a6 6 0 0 1-6 6H1566a6 6 0 0 1-6-6z" fill="none"/></a><a xlink:href="https://build.fhir.org/ig/HL7/fhir-ichom-breast-cancer-ig/Questionnaire-PatientReportedYear3and4.html" target="_blank"><path d="M1560 749.5a6 6 0 0 1 6-6h86.1a6 6 0 0 1 6 6v23.67a6 6 0 0 1-6 6H1566a6 6 0 0 1-6-6z" stroke="#3a414a" fill="#dfe3e8"/><use xlink:href="#j" transform="matrix(1,0,0,1,1572,755.499999999994) translate(17.574074074074083 8.611111111111107)"/><path class="lucid-link lucid-hotspot lucid-overlay-hotspot" d="M1560 749.5a6 6 0 0 1 6-6h86.1a6 6 0 0 1 6 6v23.67a6 6 0 0 1-6 6H1566a6 6 0 0 1-6-6z" fill="none"/></a><a xlink:href="https://build.fhir.org/ig/HL7/fhir-ichom-breast-cancer-ig/Questionnaire-PatientReportedFollowUp.html" target="_blank" transform="matrix(1,0,0,1,1572,755.499999999994)"><path class="lucid-link lucid-hotspot lucid-overlay-hotspot" fill-opacity="0" d="M17.57 1.5h39.85v10.67H17.57z"/></a><path d="M1501.48 629.66h22.78a6 6 0 0 1 6 6v119.67a6 6 0 0 0 6 6h6.9" stroke="#3a414a" fill="none"/><path d="M1501.5 630.16h-.52v-1h.52z" stroke="#3a414a" stroke-width=".05" fill="#3a414a"/><path d="M1557.92 761.33l-14.27 4.64v-9.27z" stroke="#3a414a" fill="#3a414a"/><path d="M780.17 326a6 6 0 0 1 6-6h90.03a6 6 0 0 1 6 6v23.67a6 6 0 0 1-6 6h-90.03a6 6 0 0 1-6-6z" stroke="#3a414a" fill="#6db1ff"/><use xlink:href="#k" transform="matrix(1,0,0,1,792.1698446709252,332) translate(0.5617283950617633 8.611111111111107)"/><use xlink:href="#l" transform="matrix(1,0,0,1,792.1698446709252,332) translate(34.58641975308643 8.611111111111107)"/><path d="M778.82 415.83a6 6 0 0 1 6-6h90.03a6 6 0 0 1 6 6v23.67a6 6 0 0 1-6 6h-90.03a6 6 0 0 1-6-6z" stroke="#3a414a" fill="#00c2a8"/><use xlink:href="#m" transform="matrix(1,0,0,1,790.8231435174678,421.83333333333354) translate(0.47530864197534584 8.611111111111107)"/><use xlink:href="#n" transform="matrix(1,0,0,1,790.8231435174678,421.83333333333354) translate(43.04320987654321 8.611111111111107)"/><path d="M740 459a6 6 0 0 1 6-6h130.2a6 6 0 0 1 6 6v23.67a6 6 0 0 1-6 6H746a6 6 0 0 1-6-6z" stroke="#3a414a" fill="#c3f7c8"/><use xlink:href="#o" transform="matrix(1,0,0,1,752,464.9999999999995) translate(4.018518518518562 8.611111111111107)"/><use xlink:href="#p" transform="matrix(1,0,0,1,752,464.9999999999995) translate(38.01851851851853 8.611111111111107)"/><use xlink:href="#q" transform="matrix(1,0,0,1,752,464.9999999999995) translate(55.30246913580247 8.611111111111107)"/><use xlink:href="#r" transform="matrix(1,0,0,1,752,464.9999999999995) translate(88.36419753086417 8.611111111111107)"/><path d="M780.46 532.8a6 6 0 0 1 6-6h90.03a6 6 0 0 1 6 6v23.66a6 6 0 0 1-6 6h-90.04a6 6 0 0 1-6-6z" stroke="#3a414a" fill="#6db1ff"/><use xlink:href="#k" transform="matrix(1,0,0,1,792.4644353168443,538.79477803053) translate(0.5617283950617633 8.611111111111107)"/><use xlink:href="#l" transform="matrix(1,0,0,1,792.4644353168443,538.79477803053) translate(34.58641975308643 8.611111111111107)"/><path d="M780.46 575.8a6 6 0 0 1 6-6h90.03a6 6 0 0 1 6 6v23.66a6 6 0 0 1-6 6h-90.04a6 6 0 0 1-6-6z" stroke="#3a414a" fill="#ffe342"/><use xlink:href="#s" transform="matrix(1,0,0,1,792.4644353168442,581.7947780305296) translate(10.90740740740743 8.611111111111107)"/><path d="M780.46 618.8a6 6 0 0 1 6-6h88.85a6 6 0 0 1 6 6v23.66a6 6 0 0 1-6 6h-88.84a6 6 0 0 1-6-6z" stroke="#3a414a" fill="#fc9432"/><use xlink:href="#t" transform="matrix(1,0,0,1,792.4644353168443,624.7947780305298) translate(9.685185185185208 8.611111111111107)"/><use xlink:href="#u" transform="matrix(1,0,0,1,792.4644353168443,624.7947780305298) translate(40.672839506172835 8.611111111111107)"/><path d="M778.44 824.98a6 6 0 0 1 6-6h90.02a6 6 0 0 1 6 6v23.67a6 6 0 0 1-6 6h-90.02a6 6 0 0 1-6-6z" stroke="#3a414a" fill="#ff8f8f"/><use xlink:href="#v" transform="matrix(1,0,0,1,790.439080124123,830.9807223486066) translate(12.30246913580249 8.611111111111107)"/><use xlink:href="#u" transform="matrix(1,0,0,1,790.439080124123,830.9807223486066) translate(40.05555555555556 8.611111111111107)"/><path d="M778.44 869.7a6 6 0 0 1 6-6h90.02a6 6 0 0 1 6 6v23.65a6 6 0 0 1-6 6h-90.02a6 6 0 0 1-6-6z" stroke="#3a414a" fill="#00c2a8"/><use xlink:href="#m" transform="matrix(1,0,0,1,790.439080124123,875.6859443180715) translate(0.47530864197534584 8.611111111111107)"/><use xlink:href="#n" transform="matrix(1,0,0,1,790.439080124123,875.6859443180715) translate(43.04320987654321 8.611111111111107)"/><path d="M778.6 914.4a6 6 0 0 1 6-6h90.03a6 6 0 0 1 6 6v23.66a6 6 0 0 1-6 6H784.6a6 6 0 0 1-6-6z" stroke="#3a414a" fill="#f4d9ff"/><use xlink:href="#w" transform="matrix(1,0,0,1,790.6089247950482,920.3911662875363) translate(8.216049382716072 8.611111111111107)"/><use xlink:href="#x" transform="matrix(1,0,0,1,790.6089247950482,920.3911662875363) translate(43.648148148148145 8.611111111111107)"/><use xlink:href="#y" transform="matrix(1,0,0,1,790.6089247950482,920.3911662875363) translate(53.52469135802468 8.611111111111107)"/><path d="M1682.62 413.8a6 6 0 0 1 6-6h90.02a6 6 0 0 1 6 6v23.66a6 6 0 0 1-6 6h-90.02a6 6 0 0 1-6-6z" stroke="#3a414a" fill="#6db1ff"/><use xlink:href="#k" transform="matrix(1,0,0,1,1694.6166595519562,419.79477803053084) translate(0.5617283950617633 8.611111111111107)"/><use xlink:href="#l" transform="matrix(1,0,0,1,1694.6166595519562,419.79477803053084) translate(34.58641975308643 8.611111111111107)"/><path d="M1682.62 459a6 6 0 0 1 6-6h90.02a6 6 0 0 1 6 6v23.67a6 6 0 0 1-6 6h-90.02a6 6 0 0 1-6-6z" stroke="#3a414a" fill="#ffe342"/><use xlink:href="#s" transform="matrix(1,0,0,1,1694.616659551956,464.9999999999995) translate(10.90740740740743 8.611111111111107)"/><path d="M1682.62 503.13a6 6 0 0 1 6-6H1794a6 6 0 0 1 6 6v23.66a6 6 0 0 1-6 6h-105.38a6 6 0 0 1-6-6z" stroke="#3a414a" fill="#9391ff"/><use xlink:href="#z" transform="matrix(1,0,0,1,1694.6166595519558,509.128111363863) translate(0.913580246913611 8.611111111111107)"/><use xlink:href="#A" transform="matrix(1,0,0,1,1694.6166595519558,509.128111363863) translate(37.40740740740741 8.611111111111107)"/><use xlink:href="#u" transform="matrix(1,0,0,1,1694.6166595519558,509.128111363863) translate(66.44444444444443 8.611111111111107)"/><path d="M1682.62 591.38a6 6 0 0 1 6-6h90.02a6 6 0 0 1 6 6v23.67a6 6 0 0 1-6 6h-90.02a6 6 0 0 1-6-6z" stroke="#3a414a" fill="#e08fff"/><use xlink:href="#B" transform="matrix(1,0,0,1,1694.6166595519562,597.3843340915901) translate(6.69753086419756 8.611111111111107)"/><use xlink:href="#x" transform="matrix(1,0,0,1,1694.6166595519562,597.3843340915901) translate(38.25308641975309 8.611111111111107)"/><use xlink:href="#C" transform="matrix(1,0,0,1,1694.6166595519562,597.3843340915901) translate(48.129629629629626 8.611111111111107)"/><path d="M1682.62 726a6 6 0 0 1 6-6h90.02a6 6 0 0 1 6 6v23.67a6 6 0 0 1-6 6h-90.02a6 6 0 0 1-6-6z" stroke="#3a414a" fill="#6db1ff"/><use xlink:href="#k" transform="matrix(1,0,0,1,1694.6166595519553,732) translate(0.5617283950617633 8.611111111111107)"/><use xlink:href="#l" transform="matrix(1,0,0,1,1694.6166595519553,732) translate(34.58641975308643 8.611111111111107)"/><path d="M1682.62 773a6 6 0 0 1 6-6h90.02a6 6 0 0 1 6 6v23.67a6 6 0 0 1-6 6h-90.02a6 6 0 0 1-6-6z" stroke="#3a414a" fill="#e08fff"/><use xlink:href="#B" transform="matrix(1,0,0,1,1694.6166595519555,778.9999999999999) translate(6.69753086419756 8.611111111111107)"/><use xlink:href="#x" transform="matrix(1,0,0,1,1694.6166595519555,778.9999999999999) translate(38.25308641975309 8.611111111111107)"/><use xlink:href="#C" transform="matrix(1,0,0,1,1694.6166595519555,778.9999999999999) translate(48.129629629629626 8.611111111111107)"/><path d="M1681.65 425.63h-5.3a6 6 0 0 0-6 6v165.6a6 6 0 0 0 6 6h5.3" stroke="#3a414a" fill="none"/><path d="M1682.15 426.13h-.5v-1h.5zM1682.15 603.72h-.5v-1h.5z" stroke="#3a414a" stroke-width=".05" fill="#3a414a"/><path d="M1681.65 737.83h-5.3a6 6 0 0 0-6 6v35a6 6 0 0 0 6 6h5.3" stroke="#3a414a" fill="none"/><path d="M1682.15 738.33h-.5v-1h.5zM1682.15 785.33h-.5v-1h.5z" stroke="#3a414a" stroke-width=".05" fill="#3a414a"/><path d="M1659.06 761.33h10.8" stroke="#3a414a" fill="none"/><path d="M1659.07 761.83h-.5v-1h.5z" stroke="#3a414a" stroke-width=".05" fill="#3a414a"/><path d="M1669.84 761.33h.5M1659.06 514.96h22.6" stroke="#3a414a" fill="none"/><path d="M1659.07 515.46h-.5v-1h.5zM1682.15 515.46h-.5v-1h.5z" stroke="#3a414a" stroke-width=".05" fill="#3a414a"/><path d="M883.16 337.83H894a6 6 0 0 1 6 6v121a6 6 0 0 1-6 6h-10.84" stroke="#3a414a" fill="none"/><path d="M883.17 338.33h-.5v-1h.5zM883.17 471.33h-.5v-1h.5z" stroke="#3a414a" stroke-width=".05" fill="#3a414a"/><path d="M883.45 544.63h11a6 6 0 0 1 6 6v160a6 6 0 0 1-6 6h-13.02" stroke="#3a414a" fill="none"/><path d="M883.47 545.13h-.5l-.02-1h.52zM881.44 717.13h-.5v-1h.5z" stroke="#3a414a" stroke-width=".05" fill="#3a414a"/><path d="M883.45 587.63h11a6 6 0 0 1 6 6v74a6 6 0 0 1-6 6h-13.02" stroke="#3a414a" fill="none"/><path d="M883.47 588.13h-.5l-.02-1h.52zM881.44 674.13h-.5v-1h.5z" stroke="#3a414a" stroke-width=".05" fill="#3a414a"/><path d="M881.6 792.1h10.84a6 6 0 0 1 6 6v122.12a6 6 0 0 1-6 6H881.6" stroke="#3a414a" fill="none"/><path d="M881.6 792.6h-.5v-1h.5zM881.6 926.72h-.5v-1h.5z" stroke="#3a414a" stroke-width=".05" fill="#3a414a"/><path d="M881.43 836.8h11a6 6 0 0 1 6 6v32.72a6 6 0 0 1-6 6h-11" stroke="#3a414a" fill="none"/><path d="M881.44 837.3h-.5v-1h.5zM881.44 882.02h-.5v-1h.5z" stroke="#3a414a" stroke-width=".05" fill="#3a414a"/><path d="M919.04 629.66h-36.77" stroke="#3a414a" fill="none"/><path d="M919.54 630.16h-.52v-1h.5zM882.3 630.16h-.52v-1h.5z" stroke="#3a414a" stroke-width=".05" fill="#3a414a"/><path d="M919.04 859.17h-20.1" stroke="#3a414a" fill="none"/><path d="M919.54 859.67h-.52v-1h.5z" stroke="#3a414a" stroke-width=".05" fill="#3a414a"/><path d="M898.95 859.17h-.5" stroke="#3a414a" fill="none"/><path d="M778.6 780.28a6 6 0 0 1 6-6h90.03a6 6 0 0 1 6 6v23.66a6 6 0 0 1-6 6H784.6a6 6 0 0 1-6-6z" stroke="#3a414a" fill="#6db1ff"/><g><use xlink:href="#k" transform="matrix(1,0,0,1,790.6089247950482,786.2755003791417) translate(0.5617283950617633 8.611111111111107)"/><use xlink:href="#l" transform="matrix(1,0,0,1,790.6089247950482,786.2755003791417) translate(34.58641975308643 8.611111111111107)"/></g><path d="M779.62 661.8a6 6 0 0 1 6-6h88.84a6 6 0 0 1 6 6v23.66a6 6 0 0 1-6 6h-88.84a6 6 0 0 1-6-6z" stroke="#3a414a" fill="#ff8f8f"/><g><use xlink:href="#v" transform="matrix(1,0,0,1,791.6159366066556,667.7947780305295) translate(11.30246913580249 8.611111111111107)"/><use xlink:href="#u" transform="matrix(1,0,0,1,791.6159366066556,667.7947780305295) translate(39.05555555555556 8.611111111111107)"/></g><path d="M1682.62 547.26a6 6 0 0 1 6-6h90.02a6 6 0 0 1 6 6v23.66a6 6 0 0 1-6 6h-90.02a6 6 0 0 1-6-6z" stroke="#3a414a" fill="#00c2a8"/><g><use xlink:href="#D" transform="matrix(1,0,0,1,1694.6166595519553,553.2562227277266) translate(0.47530864197534584 8.611111111111107)"/><use xlink:href="#E" transform="matrix(1,0,0,1,1694.6166595519553,553.2562227277266) translate(43.04320987654321 8.611111111111107)"/></g><path d="M1681.65 559.1H1676a6 6 0 0 1-6-6v-76.27a6 6 0 0 1 6-6h5.65" stroke="#3a414a" fill="none"/><path d="M1682.15 559.6h-.5v-1h.5zM1682.15 471.33h-.5v-1h.5z" stroke="#3a414a" stroke-width=".05" fill="#3a414a"/><path d="M780.76 370.33a6 6 0 0 1 6-6h88.85a6 6 0 0 1 6 6V394a6 6 0 0 1-6 6h-88.84a6 6 0 0 1-6-6z" stroke="#3a414a" fill="#ff8f8f"/><g><use xlink:href="#F" transform="matrix(1,0,0,1,792.7582729121914,376.33333333333337) translate(11.30246913580249 8.611111111111107)"/><use xlink:href="#G" transform="matrix(1,0,0,1,792.7582729121914,376.33333333333337) translate(39.05555555555556 8.611111111111107)"/></g><path d="M882.57 382.17H894a6 6 0 0 1 6 6v33.5a6 6 0 0 1-6 6h-12.2" stroke="#3a414a" fill="none"/><path d="M882.58 382.67h-.5v-1h.5zM881.83 428.17h-.52v-1h.53z" stroke="#3a414a" stroke-width=".05" fill="#3a414a"/><path d="M900.5 412.08h18.53M900.5 412.08h-.5" stroke="#3a414a" fill="none"/><path d="M919.53 412.58h-.5v-1h.5z" stroke="#3a414a" stroke-width=".05" fill="#3a414a"/><path d="M778.44 704.8a6 6 0 0 1 6-6h90.02a6 6 0 0 1 6 6v23.66a6 6 0 0 1-6 6h-90.02a6 6 0 0 1-6-6z" stroke="#3a414a" fill="#00c2a8"/><g><use xlink:href="#D" transform="matrix(1,0,0,1,790.439080124123,710.7947780305293) translate(0.47530864197534584 8.611111111111107)"/><use xlink:href="#E" transform="matrix(1,0,0,1,790.439080124123,710.7947780305293) translate(43.04320987654321 8.611111111111107)"/></g><defs><path fill="#3a414a" d="M140-251c80 0 125 45 125 126 0 70-33 111-92 124 6 28 34 38 68 31l-1 36C177 83 129 55 120 2 51-6 15-50 15-125c0-81 44-126 125-126zm-1 214c52 0 73-35 73-88 0-50-21-86-72-86-52 0-73 35-73 86s22 88 72 88" id="H"/><path fill="#3a414a" d="M85 4C-2 5 27-109 22-190h50c7 57-23 150 33 157 60-5 35-97 40-157h50l1 190h-47c-2-12 1-28-3-38-12 25-28 42-61 42" id="I"/><path fill="#3a414a" d="M185-48c-13 30-37 53-82 52C43 2 14-33 14-96s30-98 90-98c62 0 83 45 84 108H66c0 31 8 55 39 56 18 0 30-7 34-22zm-45-69c5-46-57-63-70-21-2 6-4 13-4 21h74" id="J"/><path fill="#3a414a" d="M137-138c1-29-70-34-71-4 15 46 118 7 119 86 1 83-164 76-172 9l43-7c4 19 20 25 44 25 33 8 57-30 24-41C81-84 22-81 20-136c-2-80 154-74 161-7" id="K"/><path fill="#3a414a" d="M115-3C79 11 28 4 28-45v-112H4v-33h27l15-45h31v45h36v33H77v99c-1 23 16 31 38 25v30" id="L"/><path fill="#3a414a" d="M25-224v-37h50v37H25zM25 0v-190h50V0H25" id="M"/><path fill="#3a414a" d="M110-194c64 0 96 36 96 99 0 64-35 99-97 99-61 0-95-36-95-99 0-62 34-99 96-99zm-1 164c35 0 45-28 45-65 0-40-10-65-43-65-34 0-45 26-45 65 0 36 10 65 43 65" id="N"/><path fill="#3a414a" d="M135-194c87-1 58 113 63 194h-50c-7-57 23-157-34-157-59 0-34 97-39 157H25l-1-190h47c2 12-1 28 3 38 12-26 28-41 61-42" id="O"/><path fill="#3a414a" d="M133-34C117-15 103 5 69 4 32 3 11-16 11-54c-1-60 55-63 116-61 1-26-3-47-28-47-18 1-26 9-28 27l-52-2c7-38 36-58 82-57s74 22 75 68l1 82c-1 14 12 18 25 15v27c-30 8-71 5-69-32zm-48 3c29 0 43-24 42-57-32 0-66-3-65 30 0 17 8 27 23 27" id="P"/><path fill="#3a414a" d="M135-150c-39-12-60 13-60 57V0H25l-1-190h47c2 13-1 29 3 40 6-28 27-53 61-41v41" id="Q"/><g id="a"><use transform="matrix(0.030864197530864175,0,0,0.030864197530864175,0,0)" xlink:href="#H"/><use transform="matrix(0.030864197530864175,0,0,0.030864197530864175,8.64197530864197,0)" xlink:href="#I"/><use transform="matrix(0.030864197530864175,0,0,0.030864197530864175,15.401234567901223,0)" xlink:href="#J"/><use transform="matrix(0.030864197530864175,0,0,0.030864197530864175,21.57407407407406,0)" xlink:href="#K"/><use transform="matrix(0.030864197530864175,0,0,0.030864197530864175,27.746913580246893,0)" xlink:href="#L"/><use transform="matrix(0.030864197530864175,0,0,0.030864197530864175,31.419753086419732,0)" xlink:href="#M"/><use transform="matrix(0.030864197530864175,0,0,0.030864197530864175,34.50617283950615,0)" xlink:href="#N"/><use transform="matrix(0.030864197530864175,0,0,0.030864197530864175,41.2654320987654,0)" xlink:href="#O"/><use transform="matrix(0.030864197530864175,0,0,0.030864197530864175,48.024691358024654,0)" xlink:href="#O"/><use transform="matrix(0.030864197530864175,0,0,0.030864197530864175,54.78395061728391,0)" xlink:href="#P"/><use transform="matrix(0.030864197530864175,0,0,0.030864197530864175,60.95679012345674,0)" xlink:href="#M"/><use transform="matrix(0.030864197530864175,0,0,0.030864197530864175,64.04320987654316,0)" xlink:href="#Q"/><use transform="matrix(0.030864197530864175,0,0,0.030864197530864175,68.36419753086415,0)" xlink:href="#J"/><use transform="matrix(0.030864197530864175,0,0,0.030864197530864175,74.53703703703698,0)" xlink:href="#K"/></g><path fill="#3a414a" d="M212-179c-10-28-35-45-73-45-59 0-87 40-87 99 0 60 29 101 89 101 43 0 62-24 78-52l27 14C228-24 195 4 139 4 59 4 22-46 18-125c-6-104 99-153 187-111 19 9 31 26 39 46" id="R"/><path fill="#3a414a" d="M24 0v-261h32V0H24" id="S"/><path fill="#3a414a" d="M24-231v-30h32v30H24zM24 0v-190h32V0H24" id="T"/><path fill="#3a414a" d="M117-194c89-4 53 116 60 194h-32v-121c0-31-8-49-39-48C34-167 62-67 57 0H25l-1-190h30c1 10-1 24 2 32 11-22 29-35 61-36" id="U"/><path fill="#3a414a" d="M96-169c-40 0-48 33-48 73s9 75 48 75c24 0 41-14 43-38l32 2c-6 37-31 61-74 61-59 0-76-41-82-99-10-93 101-131 147-64 4 7 5 14 7 22l-32 3c-4-21-16-35-41-35" id="V"/><path fill="#3a414a" d="M141-36C126-15 110 5 73 4 37 3 15-17 15-53c-1-64 63-63 125-63 3-35-9-54-41-54-24 1-41 7-42 31l-33-3c5-37 33-52 76-52 45 0 72 20 72 64v82c-1 20 7 32 28 27v20c-31 9-61-2-59-35zM48-53c0 20 12 33 32 33 41-3 63-29 60-74-43 2-92-5-92 41" id="W"/><path fill="#3a414a" d="M16-82v-28h88v28H16" id="X"/><path fill="#3a414a" d="M114-163C36-179 61-72 57 0H25l-1-190h30c1 12-1 29 2 39 6-27 23-49 58-41v29" id="Y"/><path fill="#3a414a" d="M100-194c63 0 86 42 84 106H49c0 40 14 67 53 68 26 1 43-12 49-29l28 8c-11 28-37 45-77 45C44 4 14-33 15-96c1-61 26-98 85-98zm52 81c6-60-76-77-97-28-3 7-6 17-6 28h103" id="Z"/><path fill="#3a414a" d="M115-194c55 1 70 41 70 98S169 2 115 4C84 4 66-9 55-30l1 105H24l-1-265h31l2 30c10-21 28-34 59-34zm-8 174c40 0 45-34 45-75s-6-73-45-74c-42 0-51 32-51 76 0 43 10 73 51 73" id="aa"/><path fill="#3a414a" d="M100-194c62-1 85 37 85 99 1 63-27 99-86 99S16-35 15-95c0-66 28-99 85-99zM99-20c44 1 53-31 53-75 0-43-8-75-51-75s-53 32-53 75 10 74 51 75" id="ab"/><path fill="#3a414a" d="M59-47c-2 24 18 29 38 22v24C64 9 27 4 27-40v-127H5v-23h24l9-43h21v43h35v23H59v120" id="ac"/><path fill="#3a414a" d="M85-194c31 0 48 13 60 33l-1-100h32l1 261h-30c-2-10 0-23-3-31C134-8 116 4 85 4 32 4 16-35 15-94c0-66 23-100 70-100zm9 24c-40 0-46 34-46 75 0 40 6 74 45 74 42 0 51-32 51-76 0-42-9-74-50-73" id="ad"/><g id="b"><use transform="matrix(0.024691358024691343,0,0,0.024691358024691343,0,0)" xlink:href="#R"/><use transform="matrix(0.024691358024691343,0,0,0.024691358024691343,6.395061728395058,0)" xlink:href="#S"/><use transform="matrix(0.024691358024691343,0,0,0.024691358024691343,8.345679012345673,0)" xlink:href="#T"/><use transform="matrix(0.024691358024691343,0,0,0.024691358024691343,10.29629629629629,0)" xlink:href="#U"/><use transform="matrix(0.024691358024691343,0,0,0.024691358024691343,15.23456790123456,0)" xlink:href="#T"/><use transform="matrix(0.024691358024691343,0,0,0.024691358024691343,17.185185185185176,0)" xlink:href="#V"/><use transform="matrix(0.024691358024691343,0,0,0.024691358024691343,21.62962962962962,0)" xlink:href="#T"/><use transform="matrix(0.024691358024691343,0,0,0.024691358024691343,23.580246913580236,0)" xlink:href="#W"/><use transform="matrix(0.024691358024691343,0,0,0.024691358024691343,28.518518518518505,0)" xlink:href="#U"/><use transform="matrix(0.024691358024691343,0,0,0.024691358024691343,33.45679012345677,0)" xlink:href="#X"/><use transform="matrix(0.024691358024691343,0,0,0.024691358024691343,36.39506172839504,0)" xlink:href="#Y"/><use transform="matrix(0.024691358024691343,0,0,0.024691358024691343,39.333333333333314,0)" xlink:href="#Z"/><use transform="matrix(0.024691358024691343,0,0,0.024691358024691343,44.27160493827158,0)" xlink:href="#aa"/><use transform="matrix(0.024691358024691343,0,0,0.024691358024691343,49.209876543209845,0)" xlink:href="#ab"/><use transform="matrix(0.024691358024691343,0,0,0.024691358024691343,54.14814814814812,0)" xlink:href="#Y"/><use transform="matrix(0.024691358024691343,0,0,0.024691358024691343,57.08641975308638,0)" xlink:href="#ac"/><use transform="matrix(0.024691358024691343,0,0,0.024691358024691343,59.55555555555552,0)" xlink:href="#Z"/><use transform="matrix(0.024691358024691343,0,0,0.024691358024691343,64.49382716049378,0)" xlink:href="#ad"/></g><path fill="#3a414a" d="M30-248c87 1 191-15 191 75 0 78-77 80-158 76V0H30v-248zm33 125c57 0 124 11 124-50 0-59-68-47-124-48v98" id="ae"/><g id="c"><use transform="matrix(0.024691358024691343,0,0,0.024691358024691343,0,0)" xlink:href="#ae"/><use transform="matrix(0.024691358024691343,0,0,0.024691358024691343,5.925925925925922,0)" xlink:href="#W"/><use transform="matrix(0.024691358024691343,0,0,0.024691358024691343,10.86419753086419,0)" xlink:href="#ac"/><use transform="matrix(0.024691358024691343,0,0,0.024691358024691343,13.333333333333325,0)" xlink:href="#T"/><use transform="matrix(0.024691358024691343,0,0,0.024691358024691343,15.28395061728394,0)" xlink:href="#Z"/><use transform="matrix(0.024691358024691343,0,0,0.024691358024691343,20.22222222222221,0)" xlink:href="#U"/><use transform="matrix(0.024691358024691343,0,0,0.024691358024691343,25.16049382716048,0)" xlink:href="#ac"/><use transform="matrix(0.024691358024691343,0,0,0.024691358024691343,27.629629629629612,0)" xlink:href="#X"/><use transform="matrix(0.024691358024691343,0,0,0.024691358024691343,30.56790123456788,0)" xlink:href="#Y"/><use transform="matrix(0.024691358024691343,0,0,0.024691358024691343,33.50617283950615,0)" xlink:href="#Z"/><use transform="matrix(0.024691358024691343,0,0,0.024691358024691343,38.444444444444414,0)" xlink:href="#aa"/><use transform="matrix(0.024691358024691343,0,0,0.024691358024691343,43.38271604938268,0)" xlink:href="#ab"/><use transform="matrix(0.024691358024691343,0,0,0.024691358024691343,48.320987654320945,0)" xlink:href="#Y"/><use transform="matrix(0.024691358024691343,0,0,0.024691358024691343,51.25925925925922,0)" xlink:href="#ac"/><use transform="matrix(0.024691358024691343,0,0,0.024691358024691343,53.72839506172835,0)" xlink:href="#Z"/><use transform="matrix(0.024691358024691343,0,0,0.024691358024691343,58.66666666666662,0)" xlink:href="#ad"/></g><path fill="#1071e5" d="M205 0l-28-72H64L36 0H1l101-248h38L239 0h-34zm-38-99l-47-123c-12 45-31 82-46 123h93" id="af"/><path fill="#1071e5" d="M117-194c89-4 53 116 60 194h-32v-121c0-31-8-49-39-48C34-167 62-67 57 0H25l-1-190h30c1 10-1 24 2 32 11-22 29-35 61-36" id="ag"/><path fill="#1071e5" d="M84 4C-5 8 30-112 23-190h32v120c0 31 7 50 39 49 72-2 45-101 50-169h31l1 190h-30c-1-10 1-25-2-33-11 22-28 36-60 37" id="ah"/><path fill="#1071e5" d="M141-36C126-15 110 5 73 4 37 3 15-17 15-53c-1-64 63-63 125-63 3-35-9-54-41-54-24 1-41 7-42 31l-33-3c5-37 33-52 76-52 45 0 72 20 72 64v82c-1 20 7 32 28 27v20c-31 9-61-2-59-35zM48-53c0 20 12 33 32 33 41-3 63-29 60-74-43 2-92-5-92 41" id="ai"/><path fill="#1071e5" d="M24 0v-261h32V0H24" id="aj"/><g id="d"><use transform="matrix(0.024691358024691343,0,0,0.024691358024691343,0,0)" xlink:href="#af"/><use transform="matrix(0.024691358024691343,0,0,0.024691358024691343,5.925925925925922,0)" xlink:href="#ag"/><use transform="matrix(0.024691358024691343,0,0,0.024691358024691343,10.86419753086419,0)" xlink:href="#ag"/><use transform="matrix(0.024691358024691343,0,0,0.024691358024691343,15.80246913580246,0)" xlink:href="#ah"/><use transform="matrix(0.024691358024691343,0,0,0.024691358024691343,20.740740740740726,0)" xlink:href="#ai"/><use transform="matrix(0.024691358024691343,0,0,0.024691358024691343,25.679012345678995,0)" xlink:href="#aj"/><path fill="#1071e5" d="M-.44.62h31v.65h-31z"/><path fill="#8080ff" d="M-.44.62h31v.65h-31z"/></g><path fill="#1071e5" d="M115-194c55 1 70 41 70 98S169 2 115 4C84 4 66-9 55-30l1 105H24l-1-265h31l2 30c10-21 28-34 59-34zm-8 174c40 0 45-34 45-75s-6-73-45-74c-42 0-51 32-51 76 0 43 10 73 51 73" id="ak"/><path fill="#1071e5" d="M85-194c31 0 48 13 60 33l-1-100h32l1 261h-30c-2-10 0-23-3-31C134-8 116 4 85 4 32 4 16-35 15-94c0-66 23-100 70-100zm9 24c-40 0-46 34-46 75 0 40 6 74 45 74 42 0 51-32 51-76 0-42-9-74-50-73" id="al"/><path fill="#1071e5" d="M59-47c-2 24 18 29 38 22v24C64 9 27 4 27-40v-127H5v-23h24l9-43h21v43h35v23H59v120" id="am"/><path fill="#1071e5" d="M100-194c63 0 86 42 84 106H49c0 40 14 67 53 68 26 1 43-12 49-29l28 8c-11 28-37 45-77 45C44 4 14-33 15-96c1-61 26-98 85-98zm52 81c6-60-76-77-97-28-3 7-6 17-6 28h103" id="an"/><g id="e"><use transform="matrix(0.024691358024691343,0,0,0.024691358024691343,0,0)" xlink:href="#ah"/><use transform="matrix(0.024691358024691343,0,0,0.024691358024691343,4.938271604938269,0)" xlink:href="#ak"/><use transform="matrix(0.024691358024691343,0,0,0.024691358024691343,9.876543209876537,0)" xlink:href="#al"/><use transform="matrix(0.024691358024691343,0,0,0.024691358024691343,14.814814814814806,0)" xlink:href="#ai"/><use transform="matrix(0.024691358024691343,0,0,0.024691358024691343,19.753086419753075,0)" xlink:href="#am"/><use transform="matrix(0.024691358024691343,0,0,0.024691358024691343,22.222222222222207,0)" xlink:href="#an"/><path fill="#1071e5" d="M-.44.62H27.6v.65H-.43z"/><path fill="#8080ff" d="M-.44.62H27.6v.65H-.43z"/></g><path fill="#1071e5" d="M160-131c35 5 61 23 61 61C221 17 115-2 30 0v-248c76 3 177-17 177 60 0 33-19 50-47 57zm-97-11c50-1 110 9 110-42 0-47-63-36-110-37v79zm0 115c55-2 124 14 124-45 0-56-70-42-124-44v89" id="ao"/><path fill="#1071e5" d="M135-143c-3-34-86-38-87 0 15 53 115 12 119 90S17 21 10-45l28-5c4 36 97 45 98 0-10-56-113-15-118-90-4-57 82-63 122-42 12 7 21 19 24 35" id="ap"/><path fill="#1071e5" d="M24-231v-30h32v30H24zM24 0v-190h32V0H24" id="aq"/><g id="f"><use transform="matrix(0.024691358024691343,0,0,0.024691358024691343,0,0)" xlink:href="#ao"/><use transform="matrix(0.024691358024691343,0,0,0.024691358024691343,5.925925925925922,0)" xlink:href="#ai"/><use transform="matrix(0.024691358024691343,0,0,0.024691358024691343,10.86419753086419,0)" xlink:href="#ap"/><use transform="matrix(0.024691358024691343,0,0,0.024691358024691343,15.308641975308632,0)" xlink:href="#an"/><use transform="matrix(0.024691358024691343,0,0,0.024691358024691343,20.2469135802469,0)" xlink:href="#aj"/><use transform="matrix(0.024691358024691343,0,0,0.024691358024691343,22.197530864197518,0)" xlink:href="#aq"/><use transform="matrix(0.024691358024691343,0,0,0.024691358024691343,24.148148148148135,0)" xlink:href="#ag"/><use transform="matrix(0.024691358024691343,0,0,0.024691358024691343,29.086419753086403,0)" xlink:href="#an"/><path fill="#1071e5" d="M-.44.62h34.9v.65H-.43z"/><path fill="#8080ff" d="M-.44.62h34.9v.65H-.43z"/></g><path fill="#1071e5" d="M185-189c-5-48-123-54-124 2 14 75 158 14 163 119 3 78-121 87-175 55-17-10-28-26-33-46l33-7c5 56 141 63 141-1 0-78-155-14-162-118-5-82 145-84 179-34 5 7 8 16 11 25" id="ar"/><path fill="#1071e5" d="M141 0L90-78 38 0H4l68-98-65-92h35l48 74 47-74h35l-64 92 68 98h-35" id="as"/><g id="g"><use transform="matrix(0.024691358024691343,0,0,0.024691358024691343,0,0)" xlink:href="#ar"/><use transform="matrix(0.024691358024691343,0,0,0.024691358024691343,5.925925925925922,0)" xlink:href="#aq"/><use transform="matrix(0.024691358024691343,0,0,0.024691358024691343,7.876543209876538,0)" xlink:href="#as"/><path fill="#1071e5" d="M-.44.62h15.68v.65H-.44z"/><path fill="#8080ff" d="M-.44.62h15.68v.65H-.44z"/></g><path fill="#1071e5" d="M210-169c-67 3-38 105-44 169h-31v-121c0-29-5-50-35-48C34-165 62-65 56 0H25l-1-190h30c1 10-1 24 2 32 10-44 99-50 107 0 11-21 27-35 58-36 85-2 47 119 55 194h-31v-121c0-29-5-49-35-48" id="at"/><path fill="#1071e5" d="M100-194c62-1 85 37 85 99 1 63-27 99-86 99S16-35 15-95c0-66 28-99 85-99zM99-20c44 1 53-31 53-75 0-43-8-75-51-75s-53 32-53 75 10 74 51 75" id="au"/><path fill="#1071e5" d="M106-169C34-169 62-67 57 0H25v-261h32l-1 103c12-21 28-36 61-36 89 0 53 116 60 194h-32v-121c2-32-8-49-39-48" id="av"/><g id="h"><use transform="matrix(0.024691358024691343,0,0,0.024691358024691343,0,0)" xlink:href="#at"/><use transform="matrix(0.024691358024691343,0,0,0.024691358024691343,7.3827160493827115,0)" xlink:href="#au"/><use transform="matrix(0.024691358024691343,0,0,0.024691358024691343,12.32098765432098,0)" xlink:href="#ag"/><use transform="matrix(0.024691358024691343,0,0,0.024691358024691343,17.25925925925925,0)" xlink:href="#am"/><use transform="matrix(0.024691358024691343,0,0,0.024691358024691343,19.728395061728385,0)" xlink:href="#av"/><use transform="matrix(0.024691358024691343,0,0,0.024691358024691343,24.666666666666654,0)" xlink:href="#ap"/><path fill="#1071e5" d="M-.44.62h30v.65h-30z"/><path fill="#8080ff" d="M-.44.62h30v.65h-30z"/></g><g id="i"><use transform="matrix(0.024691358024691343,0,0,0.024691358024691343,0,0)" xlink:href="#ao"/><use transform="matrix(0.024691358024691343,0,0,0.024691358024691343,5.925925925925922,0)" xlink:href="#ai"/><use transform="matrix(0.024691358024691343,0,0,0.024691358024691343,10.86419753086419,0)" xlink:href="#ap"/><use transform="matrix(0.024691358024691343,0,0,0.024691358024691343,15.308641975308632,0)" xlink:href="#an"/><use transform="matrix(0.024691358024691343,0,0,0.024691358024691343,20.2469135802469,0)" xlink:href="#aj"/><use transform="matrix(0.024691358024691343,0,0,0.024691358024691343,22.197530864197518,0)" xlink:href="#aq"/><use transform="matrix(0.024691358024691343,0,0,0.024691358024691343,24.148148148148135,0)" xlink:href="#ag"/><use transform="matrix(0.024691358024691343,0,0,0.024691358024691343,29.086419753086403,0)" xlink:href="#an"/><path fill="#1071e5" d="M-.44.62h34.9v.65H-.43z"/></g><path fill="#1071e5" d="M63-220v92h138v28H63V0H30v-248h175v28H63" id="aw"/><path fill="#1071e5" d="M206 0h-36l-40-164L89 0H53L-1-190h32L70-26l43-164h34l41 164 42-164h31" id="ax"/><path fill="#1071e5" d="M16-82v-28h88v28H16" id="ay"/><path fill="#1071e5" d="M232-93c-1 65-40 97-104 97C67 4 28-28 28-90v-158h33c8 89-33 224 67 224 102 0 64-133 71-224h33v155" id="az"/><g id="j"><use transform="matrix(0.024691358024691343,0,0,0.024691358024691343,0,0)" xlink:href="#aw"/><use transform="matrix(0.024691358024691343,0,0,0.024691358024691343,5.407407407407404,0)" xlink:href="#au"/><use transform="matrix(0.024691358024691343,0,0,0.024691358024691343,10.345679012345673,0)" xlink:href="#aj"/><use transform="matrix(0.024691358024691343,0,0,0.024691358024691343,12.29629629629629,0)" xlink:href="#aj"/><use transform="matrix(0.024691358024691343,0,0,0.024691358024691343,14.246913580246908,0)" xlink:href="#au"/><use transform="matrix(0.024691358024691343,0,0,0.024691358024691343,19.185185185185176,0)" xlink:href="#ax"/><use transform="matrix(0.024691358024691343,0,0,0.024691358024691343,25.580246913580233,0)" xlink:href="#ay"/><use transform="matrix(0.024691358024691343,0,0,0.024691358024691343,28.5185185185185,0)" xlink:href="#az"/><use transform="matrix(0.024691358024691343,0,0,0.024691358024691343,34.91358024691356,0)" xlink:href="#ak"/><path fill="#1071e5" d="M-.44.62H40.3v.65H-.44z"/><path fill="#8080ff" d="M-.44.62H40.3v.65H-.44z"/></g><path fill="#3a414a" d="M143 4C61 4 22-44 18-125c-5-107 100-154 193-111 17 8 29 25 37 43l-32 9c-13-25-37-40-76-40-61 0-88 39-88 99 0 61 29 100 91 101 35 0 62-11 79-27v-45h-74v-28h105v86C228-13 192 4 143 4" id="aA"/><g id="k"><use transform="matrix(0.02469135802469134,0,0,0.02469135802469134,0,0)" xlink:href="#aA"/><use transform="matrix(0.02469135802469134,0,0,0.02469135802469134,6.913580246913575,0)" xlink:href="#Z"/><use transform="matrix(0.02469135802469134,0,0,0.02469135802469134,11.851851851851844,0)" xlink:href="#U"/><use transform="matrix(0.02469135802469134,0,0,0.02469135802469134,16.790123456790113,0)" xlink:href="#Z"/><use transform="matrix(0.02469135802469134,0,0,0.02469135802469134,21.72839506172838,0)" xlink:href="#Y"/><use transform="matrix(0.02469135802469134,0,0,0.02469135802469134,24.66666666666665,0)" xlink:href="#W"/><use transform="matrix(0.02469135802469134,0,0,0.02469135802469134,29.604938271604922,0)" xlink:href="#S"/></g><path fill="#3a414a" d="M101-234c-31-9-42 10-38 44h38v23H63V0H32v-167H5v-23h27c-7-52 17-82 69-68v24" id="aB"/><path fill="#3a414a" d="M210-169c-67 3-38 105-44 169h-31v-121c0-29-5-50-35-48C34-165 62-65 56 0H25l-1-190h30c1 10-1 24 2 32 10-44 99-50 107 0 11-21 27-35 58-36 85-2 47 119 55 194h-31v-121c0-29-5-49-35-48" id="aC"/><g id="l"><use transform="matrix(0.02469135802469134,0,0,0.02469135802469134,0,0)" xlink:href="#T"/><use transform="matrix(0.02469135802469134,0,0,0.02469135802469134,1.9506172839506157,0)" xlink:href="#U"/><use transform="matrix(0.02469135802469134,0,0,0.02469135802469134,6.888888888888884,0)" xlink:href="#aB"/><use transform="matrix(0.02469135802469134,0,0,0.02469135802469134,9.358024691358018,0)" xlink:href="#ab"/><use transform="matrix(0.02469135802469134,0,0,0.02469135802469134,14.296296296296289,0)" xlink:href="#Y"/><use transform="matrix(0.02469135802469134,0,0,0.02469135802469134,17.234567901234556,0)" xlink:href="#aC"/><use transform="matrix(0.02469135802469134,0,0,0.02469135802469134,24.617283950617267,0)" xlink:href="#W"/><use transform="matrix(0.02469135802469134,0,0,0.02469135802469134,29.555555555555532,0)" xlink:href="#ac"/><use transform="matrix(0.02469135802469134,0,0,0.02469135802469134,32.02469135802467,0)" xlink:href="#T"/><use transform="matrix(0.02469135802469134,0,0,0.02469135802469134,33.97530864197528,0)" xlink:href="#ab"/><use transform="matrix(0.02469135802469134,0,0,0.02469135802469134,38.91358024691355,0)" xlink:href="#U"/></g><path fill="#3a414a" d="M127-220V0H93v-220H8v-28h204v28h-85" id="aD"/><g id="m"><use transform="matrix(0.02469135802469134,0,0,0.02469135802469134,0,0)" xlink:href="#aD"/><use transform="matrix(0.02469135802469134,0,0,0.02469135802469134,5.086419753086416,0)" xlink:href="#Y"/><use transform="matrix(0.02469135802469134,0,0,0.02469135802469134,8.024691358024686,0)" xlink:href="#Z"/><use transform="matrix(0.02469135802469134,0,0,0.02469135802469134,12.962962962962957,0)" xlink:href="#W"/><use transform="matrix(0.02469135802469134,0,0,0.02469135802469134,17.901234567901223,0)" xlink:href="#ac"/><use transform="matrix(0.02469135802469134,0,0,0.02469135802469134,20.370370370370356,0)" xlink:href="#aC"/><use transform="matrix(0.02469135802469134,0,0,0.02469135802469134,27.753086419753064,0)" xlink:href="#Z"/><use transform="matrix(0.02469135802469134,0,0,0.02469135802469134,32.69135802469133,0)" xlink:href="#U"/><use transform="matrix(0.02469135802469134,0,0,0.02469135802469134,37.6296296296296,0)" xlink:href="#ac"/></g><path fill="#3a414a" d="M108 0H70L1-190h34L89-25l56-165h34" id="aE"/><path fill="#3a414a" d="M115-194c53 0 69 39 70 98 0 66-23 100-70 100C84 3 66-7 56-30L54 0H23l1-261h32v101c10-23 28-34 59-34zm-8 174c40 0 45-34 45-75 0-40-5-75-45-74-42 0-51 32-51 76 0 43 10 73 51 73" id="aF"/><path fill="#3a414a" d="M135-143c-3-34-86-38-87 0 15 53 115 12 119 90S17 21 10-45l28-5c4 36 97 45 98 0-10-56-113-15-118-90-4-57 82-63 122-42 12 7 21 19 24 35" id="aG"/><g id="n"><use transform="matrix(0.02469135802469134,0,0,0.02469135802469134,0,0)" xlink:href="#aE"/><use transform="matrix(0.02469135802469134,0,0,0.02469135802469134,4.444444444444441,0)" xlink:href="#W"/><use transform="matrix(0.02469135802469134,0,0,0.02469135802469134,9.382716049382708,0)" xlink:href="#Y"/><use transform="matrix(0.02469135802469134,0,0,0.02469135802469134,12.320987654320977,0)" xlink:href="#T"/><use transform="matrix(0.02469135802469134,0,0,0.02469135802469134,14.271604938271592,0)" xlink:href="#W"/><use transform="matrix(0.02469135802469134,0,0,0.02469135802469134,19.20987654320986,0)" xlink:href="#aF"/><use transform="matrix(0.02469135802469134,0,0,0.02469135802469134,24.148148148148127,0)" xlink:href="#S"/><use transform="matrix(0.02469135802469134,0,0,0.02469135802469134,26.098765432098745,0)" xlink:href="#Z"/><use transform="matrix(0.02469135802469134,0,0,0.02469135802469134,31.037037037037013,0)" xlink:href="#aG"/></g><path fill="#3a414a" d="M185-189c-5-48-123-54-124 2 14 75 158 14 163 119 3 78-121 87-175 55-17-10-28-26-33-46l33-7c5 56 141 63 141-1 0-78-155-14-162-118-5-82 145-84 179-34 5 7 8 16 11 25" id="aH"/><path fill="#3a414a" d="M84 4C-5 8 30-112 23-190h32v120c0 31 7 50 39 49 72-2 45-101 50-169h31l1 190h-30c-1-10 1-25-2-33-11 22-28 36-60 37" id="aI"/><g id="o"><use transform="matrix(0.02469135802469134,0,0,0.02469135802469134,0,0)" xlink:href="#aH"/><use transform="matrix(0.02469135802469134,0,0,0.02469135802469134,5.925925925925921,0)" xlink:href="#aI"/><use transform="matrix(0.02469135802469134,0,0,0.02469135802469134,10.864197530864189,0)" xlink:href="#Y"/><use transform="matrix(0.02469135802469134,0,0,0.02469135802469134,13.80246913580246,0)" xlink:href="#aE"/><use transform="matrix(0.02469135802469134,0,0,0.02469135802469134,18.246913580246897,0)" xlink:href="#T"/><use transform="matrix(0.02469135802469134,0,0,0.02469135802469134,20.197530864197514,0)" xlink:href="#aE"/><use transform="matrix(0.02469135802469134,0,0,0.02469135802469134,24.641975308641953,0)" xlink:href="#W"/><use transform="matrix(0.02469135802469134,0,0,0.02469135802469134,29.580246913580226,0)" xlink:href="#S"/></g><g id="p"><use transform="matrix(0.02469135802469134,0,0,0.02469135802469134,0,0)" xlink:href="#W"/><use transform="matrix(0.02469135802469134,0,0,0.02469135802469134,4.938271604938268,0)" xlink:href="#U"/><use transform="matrix(0.02469135802469134,0,0,0.02469135802469134,9.876543209876536,0)" xlink:href="#ad"/></g><g id="q"><use transform="matrix(0.02469135802469134,0,0,0.02469135802469134,0,0)" xlink:href="#ad"/><use transform="matrix(0.02469135802469134,0,0,0.02469135802469134,4.938271604938268,0)" xlink:href="#T"/><use transform="matrix(0.02469135802469134,0,0,0.02469135802469134,6.888888888888884,0)" xlink:href="#aG"/><use transform="matrix(0.02469135802469134,0,0,0.02469135802469134,11.333333333333325,0)" xlink:href="#Z"/><use transform="matrix(0.02469135802469134,0,0,0.02469135802469134,16.271604938271594,0)" xlink:href="#W"/><use transform="matrix(0.02469135802469134,0,0,0.02469135802469134,21.209876543209862,0)" xlink:href="#aG"/><use transform="matrix(0.02469135802469134,0,0,0.02469135802469134,25.6543209876543,0)" xlink:href="#Z"/></g><g id="r"><use transform="matrix(0.02469135802469134,0,0,0.02469135802469134,0,0)" xlink:href="#V"/><use transform="matrix(0.02469135802469134,0,0,0.02469135802469134,4.444444444444441,0)" xlink:href="#ab"/><use transform="matrix(0.02469135802469134,0,0,0.02469135802469134,9.382716049382708,0)" xlink:href="#U"/><use transform="matrix(0.02469135802469134,0,0,0.02469135802469134,14.320987654320977,0)" xlink:href="#ac"/><use transform="matrix(0.02469135802469134,0,0,0.02469135802469134,16.79012345679011,0)" xlink:href="#Y"/><use transform="matrix(0.02469135802469134,0,0,0.02469135802469134,19.728395061728378,0)" xlink:href="#ab"/><use transform="matrix(0.02469135802469134,0,0,0.02469135802469134,24.666666666666647,0)" xlink:href="#S"/></g><path fill="#3a414a" d="M30-248c118-7 216 8 213 122C240-48 200 0 122 0H30v-248zM63-27c89 8 146-16 146-99s-60-101-146-95v194" id="aJ"/><path fill="#3a414a" d="M177-190C167-65 218 103 67 71c-23-6-38-20-44-43l32-5c15 47 100 32 89-28v-30C133-14 115 1 83 1 29 1 15-40 15-95c0-56 16-97 71-98 29-1 48 16 59 35 1-10 0-23 2-32h30zM94-22c36 0 50-32 50-73 0-42-14-75-50-75-39 0-46 34-46 75s6 73 46 73" id="aK"/><path fill="#3a414a" d="M106-169C34-169 62-67 57 0H25v-261h32l-1 103c12-21 28-36 61-36 89 0 53 116 60 194h-32v-121c2-32-8-49-39-48" id="aL"/><g id="s"><use transform="matrix(0.02469135802469134,0,0,0.02469135802469134,0,0)" xlink:href="#aJ"/><use transform="matrix(0.02469135802469134,0,0,0.02469135802469134,6.395061728395057,0)" xlink:href="#Z"/><use transform="matrix(0.02469135802469134,0,0,0.02469135802469134,11.333333333333325,0)" xlink:href="#aC"/><use transform="matrix(0.02469135802469134,0,0,0.02469135802469134,18.716049382716037,0)" xlink:href="#ab"/><use transform="matrix(0.02469135802469134,0,0,0.02469135802469134,23.654320987654305,0)" xlink:href="#aK"/><use transform="matrix(0.02469135802469134,0,0,0.02469135802469134,28.592592592592577,0)" xlink:href="#Y"/><use transform="matrix(0.02469135802469134,0,0,0.02469135802469134,31.53086419753084,0)" xlink:href="#W"/><use transform="matrix(0.02469135802469134,0,0,0.02469135802469134,36.46913580246911,0)" xlink:href="#aa"/><use transform="matrix(0.02469135802469134,0,0,0.02469135802469134,41.407407407407376,0)" xlink:href="#aL"/><use transform="matrix(0.02469135802469134,0,0,0.02469135802469134,46.34567901234564,0)" xlink:href="#T"/><use transform="matrix(0.02469135802469134,0,0,0.02469135802469134,48.296296296296255,0)" xlink:href="#V"/><use transform="matrix(0.02469135802469134,0,0,0.02469135802469134,52.7407407407407,0)" xlink:href="#aG"/></g><g id="t"><use transform="matrix(0.02469135802469134,0,0,0.02469135802469134,0,0)" xlink:href="#R"/><use transform="matrix(0.02469135802469134,0,0,0.02469135802469134,6.395061728395057,0)" xlink:href="#S"/><use transform="matrix(0.02469135802469134,0,0,0.02469135802469134,8.345679012345673,0)" xlink:href="#T"/><use transform="matrix(0.02469135802469134,0,0,0.02469135802469134,10.296296296296289,0)" xlink:href="#U"/><use transform="matrix(0.02469135802469134,0,0,0.02469135802469134,15.234567901234556,0)" xlink:href="#T"/><use transform="matrix(0.02469135802469134,0,0,0.02469135802469134,17.185185185185173,0)" xlink:href="#V"/><use transform="matrix(0.02469135802469134,0,0,0.02469135802469134,21.629629629629612,0)" xlink:href="#W"/><use transform="matrix(0.02469135802469134,0,0,0.02469135802469134,26.56790123456788,0)" xlink:href="#S"/></g><g id="u"><use transform="matrix(0.02469135802469134,0,0,0.02469135802469134,0,0)" xlink:href="#aB"/><use transform="matrix(0.02469135802469134,0,0,0.02469135802469134,2.469135802469134,0)" xlink:href="#W"/><use transform="matrix(0.02469135802469134,0,0,0.02469135802469134,7.407407407407402,0)" xlink:href="#V"/><use transform="matrix(0.02469135802469134,0,0,0.02469135802469134,11.851851851851842,0)" xlink:href="#ac"/><use transform="matrix(0.02469135802469134,0,0,0.02469135802469134,14.320987654320977,0)" xlink:href="#ab"/><use transform="matrix(0.02469135802469134,0,0,0.02469135802469134,19.259259259259245,0)" xlink:href="#Y"/><use transform="matrix(0.02469135802469134,0,0,0.02469135802469134,22.197530864197514,0)" xlink:href="#aG"/></g><g id="v"><use transform="matrix(0.02469135802469134,0,0,0.02469135802469134,0,0)" xlink:href="#aD"/><use transform="matrix(0.02469135802469134,0,0,0.02469135802469134,5.086419753086416,0)" xlink:href="#aI"/><use transform="matrix(0.02469135802469134,0,0,0.02469135802469134,10.024691358024683,0)" xlink:href="#aC"/><use transform="matrix(0.02469135802469134,0,0,0.02469135802469134,17.407407407407394,0)" xlink:href="#ab"/><use transform="matrix(0.02469135802469134,0,0,0.02469135802469134,22.345679012345663,0)" xlink:href="#Y"/></g><path fill="#3a414a" d="M179-190L93 31C79 59 56 82 12 73V49c39 6 53-20 64-50L1-190h34L92-34l54-156h33" id="aM"/><g id="w"><use transform="matrix(0.02469135802469134,0,0,0.02469135802469134,0,0)" xlink:href="#aJ"/><use transform="matrix(0.02469135802469134,0,0,0.02469135802469134,6.395061728395057,0)" xlink:href="#T"/><use transform="matrix(0.02469135802469134,0,0,0.02469135802469134,8.345679012345673,0)" xlink:href="#aG"/><use transform="matrix(0.02469135802469134,0,0,0.02469135802469134,12.790123456790115,0)" xlink:href="#aI"/><use transform="matrix(0.02469135802469134,0,0,0.02469135802469134,17.72839506172838,0)" xlink:href="#ac"/><use transform="matrix(0.02469135802469134,0,0,0.02469135802469134,20.197530864197514,0)" xlink:href="#T"/><use transform="matrix(0.02469135802469134,0,0,0.02469135802469134,22.14814814814813,0)" xlink:href="#S"/><use transform="matrix(0.02469135802469134,0,0,0.02469135802469134,24.098765432098748,0)" xlink:href="#T"/><use transform="matrix(0.02469135802469134,0,0,0.02469135802469134,26.04938271604936,0)" xlink:href="#ac"/><use transform="matrix(0.02469135802469134,0,0,0.02469135802469134,28.518518518518498,0)" xlink:href="#aM"/></g><g id="x"><use transform="matrix(0.02469135802469134,0,0,0.02469135802469134,0,0)" xlink:href="#ab"/><use transform="matrix(0.02469135802469134,0,0,0.02469135802469134,4.938271604938268,0)" xlink:href="#aB"/></g><g id="y"><use transform="matrix(0.02469135802469134,0,0,0.02469135802469134,0,0)" xlink:href="#V"/><use transform="matrix(0.02469135802469134,0,0,0.02469135802469134,4.444444444444441,0)" xlink:href="#W"/><use transform="matrix(0.02469135802469134,0,0,0.02469135802469134,9.382716049382708,0)" xlink:href="#Y"/><use transform="matrix(0.02469135802469134,0,0,0.02469135802469134,12.320987654320977,0)" xlink:href="#Z"/></g><path fill="#3a414a" d="M160-131c35 5 61 23 61 61C221 17 115-2 30 0v-248c76 3 177-17 177 60 0 33-19 50-47 57zm-97-11c50-1 110 9 110-42 0-47-63-36-110-37v79zm0 115c55-2 124 14 124-45 0-56-70-42-124-44v89" id="aN"/><g id="z"><use transform="matrix(0.02469135802469134,0,0,0.02469135802469134,0,0)" xlink:href="#aN"/><use transform="matrix(0.02469135802469134,0,0,0.02469135802469134,5.925925925925921,0)" xlink:href="#W"/><use transform="matrix(0.02469135802469134,0,0,0.02469135802469134,10.864197530864189,0)" xlink:href="#aG"/><use transform="matrix(0.02469135802469134,0,0,0.02469135802469134,15.30864197530863,0)" xlink:href="#Z"/><use transform="matrix(0.02469135802469134,0,0,0.02469135802469134,20.246913580246897,0)" xlink:href="#S"/><use transform="matrix(0.02469135802469134,0,0,0.02469135802469134,22.197530864197514,0)" xlink:href="#T"/><use transform="matrix(0.02469135802469134,0,0,0.02469135802469134,24.14814814814813,0)" xlink:href="#U"/><use transform="matrix(0.02469135802469134,0,0,0.02469135802469134,29.086419753086396,0)" xlink:href="#Z"/></g><g id="A"><use transform="matrix(0.02469135802469134,0,0,0.02469135802469134,0,0)" xlink:href="#V"/><use transform="matrix(0.02469135802469134,0,0,0.02469135802469134,4.444444444444441,0)" xlink:href="#S"/><use transform="matrix(0.02469135802469134,0,0,0.02469135802469134,6.395061728395057,0)" xlink:href="#T"/><use transform="matrix(0.02469135802469134,0,0,0.02469135802469134,8.345679012345672,0)" xlink:href="#U"/><use transform="matrix(0.02469135802469134,0,0,0.02469135802469134,13.283950617283939,0)" xlink:href="#T"/><use transform="matrix(0.02469135802469134,0,0,0.02469135802469134,15.234567901234554,0)" xlink:href="#V"/><use transform="matrix(0.02469135802469134,0,0,0.02469135802469134,19.679012345678995,0)" xlink:href="#W"/><use transform="matrix(0.02469135802469134,0,0,0.02469135802469134,24.617283950617264,0)" xlink:href="#S"/></g><g id="B"><use transform="matrix(0.02469135802469134,0,0,0.02469135802469134,0,0)" xlink:href="#aJ"/><use transform="matrix(0.02469135802469134,0,0,0.02469135802469134,6.395061728395057,0)" xlink:href="#Z"/><use transform="matrix(0.02469135802469134,0,0,0.02469135802469134,11.333333333333325,0)" xlink:href="#aK"/><use transform="matrix(0.02469135802469134,0,0,0.02469135802469134,16.271604938271594,0)" xlink:href="#Y"/><use transform="matrix(0.02469135802469134,0,0,0.02469135802469134,19.209876543209862,0)" xlink:href="#Z"/><use transform="matrix(0.02469135802469134,0,0,0.02469135802469134,24.14814814814813,0)" xlink:href="#Z"/></g><g id="C"><use transform="matrix(0.02469135802469134,0,0,0.02469135802469134,0,0)" xlink:href="#aL"/><use transform="matrix(0.02469135802469134,0,0,0.02469135802469134,4.938271604938268,0)" xlink:href="#Z"/><use transform="matrix(0.02469135802469134,0,0,0.02469135802469134,9.876543209876536,0)" xlink:href="#W"/><use transform="matrix(0.02469135802469134,0,0,0.02469135802469134,14.814814814814804,0)" xlink:href="#S"/><use transform="matrix(0.02469135802469134,0,0,0.02469135802469134,16.76543209876542,0)" xlink:href="#ac"/><use transform="matrix(0.02469135802469134,0,0,0.02469135802469134,19.234567901234552,0)" xlink:href="#aL"/></g><g id="D"><use transform="matrix(0.02469135802469134,0,0,0.02469135802469134,0,0)" xlink:href="#aD"/><use transform="matrix(0.02469135802469134,0,0,0.02469135802469134,5.086419753086416,0)" xlink:href="#Y"/><use transform="matrix(0.02469135802469134,0,0,0.02469135802469134,8.024691358024686,0)" xlink:href="#Z"/><use transform="matrix(0.02469135802469134,0,0,0.02469135802469134,12.962962962962957,0)" xlink:href="#W"/><use transform="matrix(0.02469135802469134,0,0,0.02469135802469134,17.901234567901223,0)" xlink:href="#ac"/><use transform="matrix(0.02469135802469134,0,0,0.02469135802469134,20.370370370370356,0)" xlink:href="#aC"/><use transform="matrix(0.02469135802469134,0,0,0.02469135802469134,27.753086419753064,0)" xlink:href="#Z"/><use transform="matrix(0.02469135802469134,0,0,0.02469135802469134,32.69135802469133,0)" xlink:href="#U"/><use transform="matrix(0.02469135802469134,0,0,0.02469135802469134,37.6296296296296,0)" xlink:href="#ac"/></g><g id="E"><use transform="matrix(0.02469135802469134,0,0,0.02469135802469134,0,0)" xlink:href="#aE"/><use transform="matrix(0.02469135802469134,0,0,0.02469135802469134,4.444444444444441,0)" xlink:href="#W"/><use transform="matrix(0.02469135802469134,0,0,0.02469135802469134,9.382716049382708,0)" xlink:href="#Y"/><use transform="matrix(0.02469135802469134,0,0,0.02469135802469134,12.320987654320977,0)" xlink:href="#T"/><use transform="matrix(0.02469135802469134,0,0,0.02469135802469134,14.271604938271592,0)" xlink:href="#W"/><use transform="matrix(0.02469135802469134,0,0,0.02469135802469134,19.20987654320986,0)" xlink:href="#aF"/><use transform="matrix(0.02469135802469134,0,0,0.02469135802469134,24.148148148148127,0)" xlink:href="#S"/><use transform="matrix(0.02469135802469134,0,0,0.02469135802469134,26.098765432098745,0)" xlink:href="#Z"/><use transform="matrix(0.02469135802469134,0,0,0.02469135802469134,31.037037037037013,0)" xlink:href="#aG"/></g><g id="F"><use transform="matrix(0.02469135802469134,0,0,0.02469135802469134,0,0)" xlink:href="#aD"/><use transform="matrix(0.02469135802469134,0,0,0.02469135802469134,5.086419753086416,0)" xlink:href="#aI"/><use transform="matrix(0.02469135802469134,0,0,0.02469135802469134,10.024691358024683,0)" xlink:href="#aC"/><use transform="matrix(0.02469135802469134,0,0,0.02469135802469134,17.407407407407394,0)" xlink:href="#ab"/><use transform="matrix(0.02469135802469134,0,0,0.02469135802469134,22.345679012345663,0)" xlink:href="#Y"/></g><g id="G"><use transform="matrix(0.02469135802469134,0,0,0.02469135802469134,0,0)" xlink:href="#aB"/><use transform="matrix(0.02469135802469134,0,0,0.02469135802469134,2.469135802469134,0)" xlink:href="#W"/><use transform="matrix(0.02469135802469134,0,0,0.02469135802469134,7.407407407407402,0)" xlink:href="#V"/><use transform="matrix(0.02469135802469134,0,0,0.02469135802469134,11.851851851851842,0)" xlink:href="#ac"/><use transform="matrix(0.02469135802469134,0,0,0.02469135802469134,14.320987654320977,0)" xlink:href="#ab"/><use transform="matrix(0.02469135802469134,0,0,0.02469135802469134,19.259259259259245,0)" xlink:href="#Y"/><use transform="matrix(0.02469135802469134,0,0,0.02469135802469134,22.197530864197514,0)" xlink:href="#aG"/></g></defs></g></svg>